<?xml version="1.0" standalone="no"?>
<!DOCTYPE svg PUBLIC "-//W3C//DTD SVG 20010904//EN"
 "http://www.w3.org/TR/2001/REC-SVG-20010904/DTD/svg10.dtd">
<svg version="1.0" xmlns="http://www.w3.org/2000/svg"
 width="706.000000pt" height="706.000000pt" viewBox="0 0 706.000000 706.000000"
 preserveAspectRatio="xMidYMid meet">
<metadata>
Created by potrace 1.11, written by Peter Selinger 2001-2013
</metadata>
<g transform="translate(0.000000,706.000000) scale(0.100000,-0.100000)"
fill="#000000" stroke="none">
<path d="M1650 7049 c0 -5 -4 -7 -10 -4 -5 3 -10 3 -10 -2 0 -4 -20 -30 -45
-57 -24 -27 -41 -54 -38 -59 3 -6 1 -7 -6 -3 -6 4 -14 0 -18 -11 -4 -9 -16
-27 -28 -38 -12 -11 -24 -28 -28 -37 -3 -10 -11 -18 -17 -18 -6 0 -8 -4 -5
-10 3 -5 1 -10 -5 -10 -6 0 -8 -4 -5 -10 3 -5 -1 -10 -9 -10 -9 0 -15 -3 -14
-7 2 -11 -35 -73 -44 -73 -5 0 -8 -6 -8 -13 0 -7 -11 -28 -25 -47 -13 -18 -22
-37 -19 -41 3 -5 0 -9 -5 -9 -6 0 -11 -7 -11 -15 0 -8 -5 -15 -11 -15 -5 0 -8
-4 -5 -9 3 -5 -1 -14 -9 -21 -8 -7 -12 -16 -9 -21 3 -5 0 -9 -5 -9 -6 0 -11
-9 -11 -19 0 -11 -7 -26 -15 -35 -9 -8 -16 -19 -17 -23 -1 -14 -10 -37 -29
-80 -10 -24 -19 -49 -19 -56 0 -8 -3 -17 -7 -21 -4 -3 -8 -16 -10 -28 -2 -12
-7 -25 -11 -28 -4 -3 -8 -10 -9 -16 -1 -6 -4 -23 -7 -38 -2 -14 -8 -31 -11
-36 -4 -6 -9 -26 -12 -43 -3 -18 -10 -35 -16 -39 -9 -6 -9 -8 0 -8 10 0 10 -7
2 -27 -12 -30 -16 -49 -23 -103 -3 -19 -8 -53 -12 -75 -4 -22 -7 -59 -8 -82 0
-24 -3 -43 -6 -43 -6 0 -8 -55 -11 -260 -2 -166 3 -290 11 -290 3 0 5 -19 5
-42 0 -24 2 -47 4 -53 3 -5 6 -14 7 -20 3 -12 15 -85 18 -102 1 -7 5 -16 9
-19 4 -4 7 -22 7 -39 0 -17 3 -35 7 -39 4 -3 8 -12 9 -19 7 -33 13 -54 23 -80
6 -16 9 -32 6 -37 -3 -4 2 -10 10 -14 8 -3 12 -12 9 -19 -3 -8 2 -22 11 -30 8
-9 15 -20 14 -24 -2 -9 6 -32 29 -83 9 -19 17 -37 17 -40 2 -10 50 -105 56
-110 3 -3 11 -20 18 -37 8 -18 17 -33 21 -33 4 0 11 -11 14 -24 3 -14 12 -31
19 -38 7 -7 24 -31 37 -53 13 -22 32 -49 42 -59 10 -11 18 -26 18 -33 0 -8 5
-11 10 -8 6 3 10 -1 10 -10 0 -10 5 -13 12 -9 7 4 8 3 4 -4 -6 -11 9 -30 82
-109 17 -19 32 -39 32 -44 0 -5 7 -9 16 -9 8 0 13 -4 9 -9 -3 -6 4 -15 15 -21
11 -6 20 -16 20 -22 0 -12 -74 -83 -95 -92 -8 -3 -15 -10 -15 -16 0 -5 -7 -10
-15 -10 -8 0 -15 -4 -15 -10 0 -5 -5 -10 -11 -10 -9 0 -56 -32 -101 -69 -30
-26 -132 -80 -150 -81 -10 0 -18 -5 -18 -11 0 -5 -4 -7 -10 -4 -5 3 -10 1 -10
-4 0 -6 -3 -10 -7 -9 -5 1 -28 -9 -53 -21 -25 -13 -46 -22 -48 -20 -2 2 -8 -4
-13 -14 -6 -9 -14 -15 -20 -12 -5 4 -9 1 -9 -5 0 -6 -4 -9 -9 -6 -4 3 -19 -3
-31 -14 -13 -11 -29 -20 -35 -20 -7 0 -18 -7 -25 -15 -7 -9 -15 -13 -18 -11
-2 3 -23 -7 -46 -23 -22 -15 -60 -38 -83 -51 -24 -13 -43 -28 -43 -32 0 -5 -4
-6 -10 -3 -5 3 -10 1 -10 -5 0 -6 -4 -9 -9 -6 -5 3 -14 -1 -21 -9 -7 -8 -24
-21 -39 -28 -48 -26 -76 -42 -134 -80 -31 -20 -62 -37 -67 -37 -6 0 -10 -4
-10 -10 0 -5 -5 -10 -10 -10 -6 0 -21 -10 -33 -23 -13 -12 -58 -48 -100 -81
l-77 -59 0 -1473 0 -1474 3275 0 3275 0 0 130 c0 113 -3 134 -21 167 -38 68
-63 108 -72 114 -5 3 -9 10 -9 15 0 5 -13 28 -29 50 -15 23 -25 44 -22 48 4 3
2 6 -4 6 -9 0 -46 51 -61 83 -5 10 -39 49 -79 93 -18 19 -33 37 -33 40 0 7
-46 58 -127 139 l-62 63 4 115 c3 64 5 119 6 124 1 4 1 10 0 13 -6 17 -3 199
3 209 4 6 4 11 -1 11 -9 0 -8 222 0 245 3 7 3 15 1 18 -9 8 -9 185 -1 180 5
-3 5 3 -1 13 -5 11 -10 44 -11 74 -2 30 -4 82 -5 115 -1 33 -5 66 -10 73 -4 7
-2 12 4 12 6 0 9 4 6 8 -4 7 -13 67 -22 142 -1 14 -3 25 -4 25 -1 0 -3 14 -5
30 -2 17 -6 42 -9 58 -10 45 -14 70 -20 112 -9 68 -17 99 -27 111 -5 6 -6 14
-2 17 3 4 0 13 -6 21 -7 8 -10 20 -6 26 3 5 1 10 -4 10 -6 0 -11 9 -11 20 0
11 7 20 15 20 9 0 21 5 28 10 7 6 32 24 57 40 25 16 65 47 90 69 25 22 48 41
53 41 4 0 7 7 7 15 0 8 4 14 8 12 9 -2 47 37 90 92 15 19 35 43 45 53 9 10 14
18 10 18 -5 0 -1 6 8 13 9 7 16 14 16 17 1 3 11 23 24 45 13 22 23 43 21 48
-1 4 2 7 6 7 8 0 22 29 53 105 7 17 13 33 14 38 2 4 4 9 5 12 1 3 4 10 5 15 1
6 4 12 5 15 1 3 4 10 5 15 1 6 4 12 5 15 1 3 3 9 4 14 0 5 4 12 8 16 4 4 4 13
1 21 -3 8 -1 14 5 14 6 0 9 11 7 25 -1 14 1 28 6 30 4 3 6 14 4 25 -2 11 -1
20 3 20 9 0 13 75 13 205 0 91 -6 200 -11 200 -1 0 -3 16 -6 35 -7 55 -9 64
-21 85 -5 11 -8 25 -6 32 2 6 -3 25 -12 42 -8 17 -15 33 -15 36 0 3 -7 21 -15
41 -8 20 -15 41 -15 46 0 5 -8 20 -17 35 -10 14 -18 33 -20 42 -1 8 -10 21
-20 29 -10 7 -17 15 -16 17 5 10 -31 74 -39 69 -4 -3 -8 1 -8 9 0 8 -8 23 -17
35 -10 11 -31 37 -48 58 -44 55 -134 144 -145 144 -6 0 -10 4 -10 8 0 9 -85
75 -94 73 -3 0 -15 7 -25 17 -37 33 -50 42 -62 42 -6 0 -23 8 -37 19 -15 10
-46 24 -69 31 -23 7 -40 17 -37 22 3 5 2 8 -3 6 -4 -1 -28 4 -53 11 -25 7 -52
15 -60 16 -8 2 -17 4 -20 5 -3 1 -8 2 -12 1 -5 0 -8 4 -8 10 0 5 -4 7 -10 4
-5 -3 -19 -1 -30 5 -15 8 -20 8 -20 -2 0 -9 -3 -9 -12 0 -7 7 -25 12 -41 12
-19 0 -26 4 -21 12 5 7 3 8 -7 3 -16 -10 -79 -13 -79 -4 0 3 -11 5 -23 4 -23
-3 -24 -1 -19 49 2 28 5 62 6 76 0 14 6 28 11 32 6 5 5 8 -3 8 -7 0 -10 5 -6
11 15 25 26 418 11 437 -6 8 -6 12 2 12 7 0 8 8 2 23 -5 12 -7 35 -6 50 2 15
0 27 -3 27 -4 0 -7 15 -8 33 -1 33 -9 93 -19 137 -3 14 -8 35 -11 47 -2 12 -8
33 -14 47 -5 13 -6 26 -3 29 3 3 1 12 -3 19 -9 13 -14 33 -16 56 -1 6 -5 12
-10 12 -4 0 -7 3 -6 8 5 13 -25 112 -34 112 -4 0 -8 10 -8 23 0 13 -4 27 -9
33 -5 5 -11 18 -13 29 -1 11 -7 23 -11 26 -5 3 -9 12 -11 20 -1 8 -14 38 -29
67 -15 28 -25 52 -22 52 3 0 -3 10 -14 22 -11 11 -18 25 -15 30 3 4 0 8 -5 8
-6 0 -11 6 -11 14 0 7 -7 19 -15 26 -8 7 -12 16 -9 21 3 5 0 9 -5 9 -6 0 -11
7 -11 16 0 8 -4 12 -10 9 -5 -3 -10 3 -10 14 0 12 -4 21 -10 21 -5 0 -10 7
-10 15 0 8 -4 15 -10 15 -5 0 -10 7 -10 15 0 8 -4 15 -10 15 -5 0 -10 7 -10
16 0 8 -4 12 -10 9 -5 -3 -10 0 -10 7 0 7 -10 25 -23 41 -12 15 -33 41 -47 58
-14 17 -30 37 -37 44 -7 7 -9 15 -6 19 4 3 -1 6 -10 6 -9 0 -17 7 -17 17 0 9
-3 13 -6 10 -4 -3 -15 5 -26 18 l-19 25 -1685 0 c-1178 0 -1684 -3 -1684 -11z
m2747 -3657 c7 -5 14 -20 15 -35 1 -15 5 -27 8 -27 4 0 12 -16 20 -35 8 -19
18 -35 24 -35 5 0 6 -3 3 -7 -4 -3 3 -20 16 -37 12 -17 29 -43 36 -58 8 -15
22 -37 33 -47 10 -11 18 -23 18 -26 0 -4 6 -12 13 -19 57 -60 67 -76 56 -94
-6 -10 -26 -28 -43 -40 -43 -30 -96 -78 -96 -87 0 -4 -9 -18 -20 -32 -11 -14
-20 -23 -20 -19 0 4 -7 0 -15 -8 -13 -13 -20 -13 -38 -3 -12 6 -24 14 -27 17
-3 3 -18 12 -35 20 -16 8 -37 20 -45 27 -96 75 -164 133 -156 133 2 0 -15 20
-37 44 -82 86 -125 136 -119 136 4 0 1 4 -6 8 -15 10 -21 66 -7 67 6 0 15 3
20 6 6 3 22 5 38 4 15 0 27 3 27 8 0 4 4 6 9 3 5 -4 11 -3 13 1 4 11 80 49 90
46 4 -2 8 2 8 8 0 5 5 7 10 4 6 -3 10 -1 10 5 0 6 5 8 10 5 6 -3 10 -1 10 4 0
6 3 10 8 9 10 -4 102 32 127 49 23 15 26 15 42 5z"/>
</g>
</svg>
